<?xml version="1.0" standalone="yes"?>
<svg xmlns="http://www.w3.org/2000/svg" width="2200" height="1467">
<path style="fill:#47704c; stroke:none;" d="M0 0L0 1467L2200 1467L2200 0L0 0z"/>
<path style="fill:#8a4730; stroke:none;" d="M488 544L489 545L488 544z"/>
<path style="fill:#dc150f; stroke:none;" d="M489 544C495.194 546.599 504.314 545 511 545L558 545C551.806 542.401 542.686 544 536 544L489 544z"/>
<path style="fill:#6a5b3d; stroke:none;" d="M423 545C430.409 548.109 441.976 546 450 546C442.591 542.891 431.024 545 423 545z"/>
<path style="fill:#ff0000; stroke:none;" d="M267 873C271.116 877.204 273.249 883.141 276.885 887.826C283.474 896.316 292.243 902.74 302 907.135C317.628 914.174 335.191 914.938 352 916.089C361.35 916.73 370.65 918.27 380 918.911C387.312 919.411 394.688 918.589 402 919.089C446.592 922.143 491.203 922 536 922C572.976 922 610.298 922.668 647 919.171C652.59 918.639 658.379 919.393 664 919.291C674.687 919.097 685.374 917.181 696 916.17C721.427 913.75 745.187 913.071 764.826 894.271C787.025 873.02 788.778 835.813 790.039 807C790.565 794.992 792.435 783.013 792.961 771C794.574 734.16 793.657 696.643 790.17 660C787.987 637.067 787.121 613.653 778.174 592C776.159 587.123 773.077 583.031 769.841 578.911C745.802 548.294 705.411 553.096 671 548.576C663.029 547.529 655.011 548.311 647 547.961L601 545.961C571.393 544.664 541.684 545 512 545C492.725 545 473.255 544.196 454 545.039C434.731 545.883 415.275 547.767 396 547.996C374.209 548.255 352.594 549.627 331 552.575C312.641 555.081 295.628 559.401 282.015 573.015C260.55 594.481 259.567 629.585 256.925 658C252.98 700.429 252.999 743.488 255.91 786C256.298 791.652 255.633 797.356 256.17 803C257.595 817.973 258.879 833.177 261.325 848C262.687 856.259 266.68 864.661 267 873z"/>
<path style="fill:#6a5b3d; stroke:none;" d="M596 545C603.409 548.109 614.976 546 623 546C615.591 542.891 604.024 545 596 545z"/>
<path style="fill:#ac3322; stroke:none;" d="M403 546C408.469 548.295 416.099 547 422 547C416.531 544.705 408.901 546 403 546M623 546C628.469 548.295 636.099 547 642 547C636.531 544.705 628.901 546 623 546z"/>
<path style="fill:#ea0d0a; stroke:none;" d="M387 547C391.724 548.982 397.91 548 403 548C398.276 546.018 392.09 547 387 547M642 547C646.471 548.876 652.183 548 657 548C652.529 546.124 646.817 547 642 547z"/>
<path style="fill:#775339; stroke:none;" d="M363 548C366.697 549.552 371.017 549 375 549C371.303 547.448 366.983 548 363 548M670 548C673.432 549.44 677.3 549 681 549C677.568 547.56 673.7 548 670 548z"/>
<path style="fill:#be281b; stroke:none;" d="M354 549C356.89 550.213 359.874 549.998 363 550C360.11 548.787 357.126 549.002 354 549M681 549C684.163 550.327 687.586 550 691 550C687.837 548.673 684.415 549 681 549z"/>
<path style="fill:#9c3c29; stroke:none;" d="M345 550L346 551L345 550z"/>
<path style="fill:#884831; stroke:none;" d="M332 551C334.332 551.985 336.457 551.981 339 552C336.669 551.016 334.543 551.019 332 551M706 551C708.332 551.985 710.457 551.981 713 552C710.668 551.015 708.543 551.019 706 551z"/>
<path style="fill:#8e4530; stroke:none;" d="M326 552L327 553L326 552z"/>
<path style="fill:#d01d13; stroke:none;" d="M327 552C328.769 552.779 330.036 552.912 332 553C330.231 552.221 328.964 552.088 327 552z"/>
<path style="fill:#d11d13; stroke:none;" d="M713 552C714.769 552.779 716.036 552.912 718 553C716.231 552.221 714.964 552.088 713 552z"/>
<path style="fill:#5f6242; stroke:none;" d="M318 553C319.506 553.683 320.315 553.826 322 554C320.494 553.317 319.685 553.174 318 553z"/>
<path style="fill:#9a3e2a; stroke:none;" d="M315 554C316.248 554.685 316.548 554.749 318 555C316.751 554.315 316.452 554.251 315 554z"/>
<path style="fill:#993e2a; stroke:none;" d="M727 554C728.248 554.685 728.548 554.749 730 555C728.752 554.315 728.452 554.251 727 554z"/>
<path style="fill:#db160f; stroke:none;" d="M312 555C313.248 555.685 313.548 555.749 315 556C313.752 555.315 313.452 555.251 312 555z"/>
<path style="fill:#de150f; stroke:none;" d="M731.667 555.333C731.222 555.778 732.278 555.722 732.333 555.667C732.778 555.222 731.722 555.278 731.667 555.333z"/>
<path style="fill:#8a4730; stroke:none;" d="M733 555L734 556L733 555z"/>
<path style="fill:#6a5b3e; stroke:none;" d="M307 556C308.248 556.685 308.549 556.749 310 557C308.752 556.315 308.452 556.251 307 556M736 556C737.248 556.685 737.548 556.749 739 557C737.752 556.315 737.452 556.251 736 556z"/>
<path style="fill:#ac3222; stroke:none;" d="M305.667 557.333C305.222 557.778 306.278 557.722 306.333 557.667C306.778 557.222 305.722 557.278 305.667 557.333z"/>
<path style="fill:#9a3d2b; stroke:none;" d="M739.667 557.333C739.222 557.778 740.278 557.722 740.333 557.667C740.778 557.222 739.722 557.278 739.667 557.333z"/>
<path style="fill:#775337; stroke:none;" d="M300.667 559.333C300.222 559.778 301.278 559.722 301.333 559.667C301.778 559.222 300.722 559.278 300.667 559.333z"/>
<path style="fill:#ba2b1d; stroke:none;" d="M744 559L745 560L744 559z"/>
<path style="fill:#436848; stroke:none;" d="M1631 559L1631 896C1633.7 889.564 1632 879.951 1632 873L1632 821L1632 643L1632 585C1632 577.256 1634 566.159 1631 559z"/>
<path style="fill:#282828; stroke:none;" d="M1632 559L1632 895L1663 895C1666.52 895 1672.45 896.105 1675.49 893.972C1679.88 890.887 1680.77 878.956 1681 874C1689.85 881.156 1695.05 890.195 1706 894.994C1722.19 902.091 1745.61 901.148 1758.96 888.816C1767.16 881.243 1772.22 869.569 1775.22 859C1778.49 847.483 1779.05 835.788 1780.17 824C1782.56 798.934 1781.63 774.096 1781.01 749C1780.43 725.259 1781.16 699.053 1770.99 677.015C1754.76 641.855 1699.58 648.838 1685 682C1681.48 670.083 1684 654.419 1684 642L1684 559L1632 559z"/>
<path style="fill:#993e2a; stroke:none;" d="M299 560L300 561L299 560z"/>
<path style="fill:#c0261a; stroke:none;" d="M746 560L747 561L746 560z"/>
<path style="fill:#874932; stroke:none;" d="M295 562L296 563L295 562z"/>
<path style="fill:#7c4f37; stroke:none;" d="M750.667 562.333C750.222 562.778 751.278 562.722 751.333 562.667C751.778 562.222 750.722 562.278 750.667 562.333z"/>
<path style="fill:#bb2a1c; stroke:none;" d="M294 563L295 564L294 563z"/>
<path style="fill:#8b462e; stroke:none;" d="M752 563L753 564L752 563z"/>
<path style="fill:#834b34; stroke:none;" d="M292 564L293 565L292 564z"/>
<path style="fill:#9f3b27; stroke:none;" d="M291 565L292 566L291 565z"/>
<path style="fill:#9b3e2a; stroke:none;" d="M755 565L756 566L755 565z"/>
<path style="fill:#a53625; stroke:none;" d="M758 567L759 568L758 567z"/>
<path style="fill:#ab3424; stroke:none;" d="M759 568L760 569L759 568z"/>
<path style="fill:#ab3422; stroke:none;" d="M760 569L761 570L760 569z"/>
<path style="fill:#7b5135; stroke:none;" d="M762 570L763 571L762 570z"/>
<path style="fill:#3f5e44; stroke:none;" d="M846 572C852.817 570.377 860.03 571 867 571L900 571C895.785 569.231 890.535 570 886 570L859 570C854.932 570 848.848 568.741 846 572M968 570C973.216 572.189 980.381 571 986 571L1022 571C1016.78 568.811 1009.62 570 1004 570L968 570z"/>
<path style="fill:#3e5c43; stroke:none;" d="M1313 570C1317.72 571.981 1323.92 571 1329 571L1361 571L1472 571C1467.28 569.019 1461.08 570 1456 570L1424 570L1313 570z"/>
<path style="fill:#864a32; stroke:none;" d="M763 571L764 572L763 571z"/>
<path style="fill:#282828; stroke:none;" d="M847 571C847.941 580.456 851.722 589.862 854.255 599C857.952 612.341 861.295 625.724 865.23 639C874.356 669.788 881.924 701.077 890.593 732C894.416 745.635 897.933 759.385 901.781 773C903.555 779.278 906.348 785.633 907.621 792C909.746 802.628 908 815.17 908 826L908 895L961 895L961 824C961 812.384 959.416 799.464 961.326 788C963.523 774.812 969.154 761.939 972.522 749C983.852 705.475 996.775 662.418 1008.49 619C1012.77 603.145 1019.22 587.17 1022 571L968 571C960.672 609.896 950.064 648.093 942.739 687C939.883 702.169 935.01 717.467 935 733C931.8 726.623 931.716 719.858 930.335 713C927.712 699.982 925.045 687.035 922.539 674C918.367 652.293 913.179 630.624 908.489 609C905.804 596.619 901.107 583.734 901 571L847 571z"/>
<path style="fill:#374d3a; stroke:none;" d="M1313 571L1313 615C1314.55 611.301 1314 606.983 1314 603L1314 582C1314 578.298 1314.44 574.435 1313 571z"/>
<path style="fill:#282828; stroke:none;" d="M1314 571L1314 614L1367 614L1367 895C1369.9 888.081 1368 877.48 1368 870L1368 813L1368 615C1370.7 624.122 1369 635.511 1369 645L1369 703L1369 894L1418 894L1418 614L1472 614L1472 571L1314 571z"/>
<path style="fill:#844b33; stroke:none;" d="M766 574L767 575L766 574z"/>
<path style="fill:#3c573f; stroke:none;" d="M901 575L901 579C901.71 577.24 901.71 576.759 901 575z"/>
<path style="fill:#ae3221; stroke:none;" d="M768 577L769 578L768 577z"/>
<path style="fill:#a23826; stroke:none;" d="M769 578L770 579L769 578z"/>
<path style="fill:#ab3423; stroke:none;" d="M770 579L771 580L770 579z"/>
<path style="fill:#394f3b; stroke:none;" d="M1019 579L1019 582C1019.7 580.447 1019.7 580.554 1019 579z"/>
<path style="fill:#d41b12; stroke:none;" d="M771.333 580.667C771.278 580.722 771.222 581.778 771.667 581.333C771.722 581.278 771.778 580.222 771.333 580.667z"/>
<path style="fill:#8e442e; stroke:none;" d="M274 582L275 583L274 582z"/>
<path style="fill:#aa3523; stroke:none;" d="M273 584L274 585L273 584z"/>
<path style="fill:#af3221; stroke:none;" d="M774 585L775 586L774 585z"/>
<path style="fill:#334035; stroke:none;" d="M903 585L903 589C903.71 587.24 903.71 586.759 903 585z"/>
<path style="fill:#814b33; stroke:none;" d="M775 586L776 587L775 586z"/>
<path style="fill:#ab3324; stroke:none;" d="M271 587L272 588L271 587z"/>
<path style="fill:#364938; stroke:none;" d="M964 587L964 590C964.696 588.446 964.696 588.554 964 587z"/>
<path style="fill:#8d472e; stroke:none;" d="M270 589L271 590L270 589z"/>
<path style="fill:#993e2a; stroke:none;" d="M269 590L270 591L269 590z"/>
<path style="fill:#9b3d29; stroke:none;" d="M777 590L778 591L777 590z"/>
<path style="fill:#384c3b; stroke:none;" d="M1016.33 590.667C1016.28 590.722 1016.22 591.778 1016.67 591.333C1016.72 591.278 1016.78 590.222 1016.33 590.667z"/>
<path style="fill:#9b3d29; stroke:none;" d="M268.333 592.667C268.278 592.722 268.222 593.778 268.667 593.333C268.722 593.278 268.778 592.222 268.333 592.667z"/>
<path style="fill:#8b472f; stroke:none;" d="M778 592L779 593L778 592z"/>
<path style="fill:#d01d13; stroke:none;" d="M779.333 594.667C779.278 594.722 779.222 595.778 779.667 595.333C779.722 595.278 779.778 594.222 779.333 594.667z"/>
<path style="fill:#983f2a; stroke:none;" d="M267 595L268 596L267 595z"/>
<path style="fill:#884732; stroke:none;" d="M780 596L780 599C780.696 597.446 780.696 597.554 780 596z"/>
<path style="fill:#354937; stroke:none;" d="M906 598L906 602C906.71 600.24 906.71 599.759 906 598z"/>
<path style="fill:#894731; stroke:none;" d="M265 599L265 602C265.696 600.446 265.696 600.554 265 599z"/>
<path style="fill:#354838; stroke:none;" d="M854.333 599.667C854.278 599.722 854.222 600.778 854.667 600.333C854.722 600.278 854.778 599.222 854.333 599.667z"/>
<path style="fill:#39503b; stroke:none;" d="M961 600L961 603C961.696 601.446 961.696 601.554 961 600z"/>
<path style="fill:#c0281a; stroke:none;" d="M782.333 603.667C782.278 603.722 782.222 604.778 782.667 604.333C782.722 604.278 782.778 603.222 782.333 603.667z"/>
<path style="fill:#b82b1e; stroke:none;" d="M264 604L265 605L264 604z"/>
<path style="fill:#795338; stroke:none;" d="M783 605L783 609C783.71 607.24 783.71 606.76 783 605z"/>
<path style="fill:#c1271a; stroke:none;" d="M263 607L263 611C263.71 609.24 263.71 608.76 263 607z"/>
<path style="fill:#775338; stroke:none;" d="M262 611L262 615C262.71 613.241 262.71 612.759 262 611z"/>
<path style="fill:#38503b; stroke:none;" d="M909 613L909 616C909.696 614.446 909.696 614.554 909 613z"/>
<path style="fill:#303b30; stroke:none;" d="M1314 614C1318.97 616.085 1325.65 615 1331 615L1367 615C1362.03 612.915 1355.35 614 1350 614L1314 614z"/>
<path style="fill:#282628; stroke:none;" d="M1418 614L1418 894L1369 894L1369 615C1366.1 621.919 1368 632.52 1368 640L1368 697L1368 895L1419 895L1419 697L1419 640C1419 632.256 1421 621.159 1418 614z"/>
<path style="fill:#303b30; stroke:none;" d="M1419 614C1423.97 616.085 1430.65 615 1436 615L1472 615C1467.03 612.915 1460.35 614 1455 614L1419 614z"/>
<path style="fill:#ae3222; stroke:none;" d="M785 615L785 619C785.71 617.24 785.71 616.76 785 615z"/>
<path style="fill:#47714c; stroke:none;" d="M1313 615C1317.97 617.085 1324.65 616 1330 616L1365 616L1365 803L1365 863C1365 874.201 1363.95 885.958 1366 897L1418 897C1413.03 894.915 1406.35 896 1401 896L1367 896L1367 615L1313 615z"/>
<path style="fill:#e80d0a; stroke:none;" d="M261 618L261 623C261.83 620.97 261.83 620.03 261 618z"/>
<path style="fill:#384f3b; stroke:none;" d="M1008 618L1008 621C1008.7 619.446 1008.7 619.554 1008 618z"/>
<path style="fill:#685b3d; stroke:none;" d="M786 619L786 623C786.71 621.241 786.71 620.759 786 619z"/>
<path style="fill:#ac3322; stroke:none;" d="M260 623L260 628C260.83 625.97 260.83 625.031 260 623z"/>
<path style="fill:#bd281c; stroke:none;" d="M786 623L787 624L786 623z"/>
<path style="fill:#6a5a3d; stroke:none;" d="M259 628L259 633C259.83 630.97 259.83 630.03 259 628z"/>
<path style="fill:#7c5035; stroke:none;" d="M787 628L788 629L787 628z"/>
<path style="fill:#384f3b; stroke:none;" d="M862 628L862 631C862.696 629.447 862.696 629.554 862 628z"/>
<path style="fill:#dc150e; stroke:none;" d="M787 629L787 634C787.83 631.97 787.83 631.03 787 629z"/>
<path style="fill:#354938; stroke:none;" d="M1005.33 629.667C1005.28 629.722 1005.22 630.778 1005.67 630.333C1005.72 630.278 1005.78 629.222 1005.33 629.667z"/>
<path style="fill:#9a3e2a; stroke:none;" d="M788 634L788 640C788.951 637.715 788.951 636.285 788 634z"/>
<path style="fill:#364938; stroke:none;" d="M953 636L953 639C953.696 637.446 953.696 637.554 953 636z"/>
<path style="fill:#dc150f; stroke:none;" d="M258 639L258 645C258.951 642.715 258.951 641.285 258 639z"/>
<path style="fill:#354938; stroke:none;" d="M865.333 639.667C865.278 639.722 865.222 640.778 865.667 640.333C865.722 640.278 865.778 639.222 865.333 639.667z"/>
<path style="fill:#5c6342; stroke:none;" d="M789 642L789 647C789.83 644.97 789.83 644.03 789 642z"/>
<path style="fill:#9a3e2a; stroke:none;" d="M257 646L257 653C258.059 650.466 258.059 648.534 257 646z"/>
<path style="fill:#354837; stroke:none;" d="M917 650L917 654C917.71 652.24 917.71 651.759 917 650z"/>
<path style="fill:#5d6342; stroke:none;" d="M256 653L256 661C257.161 658.23 257.161 655.77 256 653z"/>
<path style="fill:#ff3c3c; stroke:none;" d="M469 653L469 814C470.661 810.041 470 805.26 470 801L470 778L470 694L470 667C470 662.464 470.769 657.215 469 653z"/>
<path style="fill:#ffffff; stroke:none;" d="M470 653C472.166 664.665 471 677.165 471 689L471 751L471 790C471 797.591 471.767 805.578 470 813C476.205 811.209 481.388 807.395 487 804.306C499.113 797.638 511.103 790.653 523 783.603C551.461 766.738 580.784 751.269 609 734C604.094 728.94 597.066 726.05 591 722.573C580.969 716.821 571.042 710.883 561 705.15C540.953 693.706 521.025 682.059 501 670.579C490.781 664.72 480.661 657.983 470 653z"/>
<path style="fill:#ff7676; stroke:none;" d="M471 653L472 654L471 653z"/>
<path style="fill:#39503b; stroke:none;" d="M1726 653C1729.43 654.44 1733.3 654 1737 654C1733.57 652.56 1729.7 653 1726 653z"/>
<path style="fill:#38503b; stroke:none;" d="M1865 653C1872.17 656.008 1883.24 654 1891 654C1883.83 650.992 1872.76 653 1865 653z"/>
<path style="fill:#ff5151; stroke:none;" d="M473 654L474 655L473 654z"/>
<path style="fill:#d01d13; stroke:none;" d="M790 654L790 663C791.256 660.006 791.256 656.994 790 654z"/>
<path style="fill:#2d362e; stroke:none;" d="M1071 654C1077.2 656.603 1086.3 655 1093 655C1086.8 652.397 1077.7 654 1071 654z"/>
<path style="fill:#282828; stroke:none;" d="M1093 654.714C1071.49 654.743 1047.88 654.284 1031.17 670.3C1007.96 692.565 1008 731.367 1008 761C1008 788.866 1007.08 816.502 1011.71 844C1015.58 866.909 1026.6 887.82 1050 895.406C1060.63 898.853 1072.87 900.052 1084 899.999C1091.61 899.963 1100.71 899.148 1108 896.911C1114.66 894.867 1121.3 892.491 1127 888.366C1141.56 877.833 1148.26 859.965 1151.46 843C1155.74 820.333 1156 797.042 1156 774C1156 755.49 1156.41 735.101 1152.35 717C1147.1 693.61 1140.92 672.382 1118 660.805C1113.81 658.689 1109.58 657.616 1105 656.74C1101.01 655.978 1097.09 654.708 1093 654.714M1945 825C1934.7 824.972 1924.28 823.631 1914 822.911C1909.93 822.625 1904.22 820.686 1900.32 822.603C1896.86 824.306 1897.99 830.809 1897.58 834C1896.37 843.212 1895.9 852.37 1887.96 858.62C1878.82 865.819 1865.42 861.817 1861.23 850.961C1854.49 833.463 1857 812.364 1857 794L1946 794C1946 771.293 1946.03 748.638 1945.04 726C1944.2 706.902 1942.07 685.523 1928.84 670.465C1916.72 656.656 1898.31 654 1881 654C1859.1 654 1836.89 656.271 1822.64 675.424C1806.97 696.481 1805.12 728.716 1805 754C1804.86 782.352 1804.21 810.944 1808.58 839C1810.97 854.384 1816.55 871.728 1828.09 882.816C1846.84 900.821 1879.35 901.292 1903 895.221C1913.47 892.532 1924.5 887.372 1931.67 878.982C1944.53 863.928 1945.38 843.688 1945 825z"/>
<path style="fill:#fff6f6; stroke:none;" d="M470 655L470 812C471.769 807.785 471 802.536 471 798L471 772L471 691L471 668C471 663.74 471.661 658.959 470 655z"/>
<path style="fill:#ffadad; stroke:none;" d="M474 655L475 656L474 655z"/>
<path style="fill:#ff8f8f; stroke:none;" d="M476 656L477 657L476 656z"/>
<path style="fill:#364838; stroke:none;" d="M1058 656C1059.25 656.685 1059.55 656.749 1061 657C1059.75 656.315 1059.45 656.251 1058 656z"/>
<path style="fill:#364a38; stroke:none;" d="M1103 656C1104.51 656.683 1105.31 656.826 1107 657C1105.49 656.317 1104.69 656.174 1103 656z"/>
<path style="fill:#364837; stroke:none;" d="M1713.67 656.333C1713.22 656.778 1714.28 656.722 1714.33 656.667C1714.78 656.222 1713.72 656.278 1713.67 656.333z"/>
<path style="fill:#364938; stroke:none;" d="M1904.67 656.333C1904.22 656.777 1905.28 656.722 1905.33 656.667C1905.78 656.222 1904.72 656.278 1904.67 656.333z"/>
<path style="fill:#ff7070; stroke:none;" d="M478 657L479 658L478 657z"/>
<path style="fill:#38503b; stroke:none;" d="M997 657L997 660C997.696 658.446 997.696 658.554 997 657z"/>
<path style="fill:#ffc6c6; stroke:none;" d="M479 658L480 659L479 658z"/>
<path style="fill:#ff4848; stroke:none;" d="M480 658L481 659L480 658z"/>
<path style="fill:#3e5d43; stroke:none;" d="M1182 658C1187.22 660.189 1194.38 659 1200 659L1237 659C1231.78 656.811 1224.62 658 1219 658L1182 658M1273 658C1278.22 660.189 1285.38 659 1291 659L1327 659C1321.78 656.811 1314.62 658 1309 658L1273 658M1456 658C1460.97 660.085 1467.65 659 1473 659L1509 659C1504.03 656.915 1497.35 658 1492 658L1456 658M1547 658C1552.22 660.189 1559.38 659 1565 659L1601 659C1595.78 656.811 1588.62 658 1583 658L1547 658z"/>
<path style="fill:#ffaaaa; stroke:none;" d="M481 659L482 660L481 659z"/>
<path style="fill:#ff3838; stroke:none;" d="M482 659L483 660L482 659z"/>
<path style="fill:#2d362f; stroke:none;" d="M1182 659L1182 845C1183.77 840.785 1183 835.535 1183 831L1183 803L1183 706L1183 675C1183 669.92 1183.98 663.72 1182 659z"/>
<path style="fill:#282828; stroke:none;" d="M1183 659L1183 817C1183 838.597 1179.27 867.26 1193.98 885.271C1201.84 894.892 1212.81 899.057 1225 899.911C1230.02 900.262 1235 899.466 1240 900C1242.9 897.762 1246.59 897.361 1250 895.985C1254.99 893.971 1259.72 891.379 1264 888.1C1271.54 882.322 1274.6 873.516 1281 867C1281.08 876.486 1283.27 886.668 1285 896L1327 896L1327 659L1273 659L1273 816C1273 825.414 1275.18 837.981 1272.35 847C1269.76 855.241 1258.53 861.924 1250 860.939C1242.8 860.108 1239.68 854.39 1237.92 848C1234.9 837.029 1236 825.266 1236 814L1236 659L1183 659z"/>
<path style="fill:#364839; stroke:none;" d="M1236 659L1236 842C1237.77 837.785 1237 832.535 1237 828L1237 801L1237 705L1237 674C1237 669.191 1237.88 663.469 1236 659z"/>
<path style="fill:#38503b; stroke:none;" d="M1327 659L1327 896C1329.09 891.031 1328 884.35 1328 879L1328 843L1328 719L1328 678C1328 672.113 1329.29 664.462 1327 659z"/>
<path style="fill:#282828; stroke:none;" d="M1456 659L1456 798C1456 821.294 1452.32 848.574 1459.67 871C1468.08 896.676 1495.6 905.285 1520 897.33C1535.14 892.394 1546.36 881.216 1553 867C1556.24 875.647 1557.6 886.796 1558 896L1601 896C1598.88 887.077 1600 877.134 1600 868L1600 819L1600 659L1547 659L1547 818C1547 834.072 1550.34 852.248 1532 859.381C1528.85 860.606 1525.4 861.567 1522 860.887C1515.59 859.604 1512.73 853.762 1511.35 848C1508.59 836.424 1509 824.81 1509 813L1509 659L1456 659z"/>
<path style="fill:#405d43; stroke:none;" d="M1509 659L1509 838C1510.88 833.531 1510 827.809 1510 823L1510 793L1510 699L1510 673C1510 668.464 1510.77 663.215 1509 659z"/>
<path style="fill:#426245; stroke:none;" d="M1546 659L1546 847C1547.77 842.785 1547 837.535 1547 833L1547 805L1547 706L1547 675C1547 669.92 1547.98 663.72 1546 659z"/>
<path style="fill:#0e0f0f; stroke:none;" d="M1600 659L1600 895C1602.09 890.031 1601 883.35 1601 878L1601 842L1601 718L1601 678C1601 672.113 1602.29 664.462 1600 659z"/>
<path style="fill:#ff8181; stroke:none;" d="M483 660L484 661L483 660z"/>
<path style="fill:#983f2a; stroke:none;" d="M256 661L257 662L256 661z"/>
<path style="fill:#ff5f5f; stroke:none;" d="M485 661L486 662L485 661z"/>
<path style="fill:#ffc2c2; stroke:none;" d="M486 662L487 663L486 662z"/>
<path style="fill:#ff4d4d; stroke:none;" d="M487 662L488 663L487 662z"/>
<path style="fill:#ffa2a2; stroke:none;" d="M488 663L489 664L488 663z"/>
<path style="fill:#884831; stroke:none;" d="M791 663L791 674C792.431 670.59 792.431 666.41 791 663z"/>
<path style="fill:#ff7e7e; stroke:none;" d="M490 664L491 665L490 664z"/>
<path style="fill:#ff6363; stroke:none;" d="M492 665L493 666L492 665z"/>
<path style="fill:#ffb6b6; stroke:none;" d="M493 666L494 667L493 666z"/>
<path style="fill:#ff3737; stroke:none;" d="M494 666L495 667L494 666z"/>
<path style="fill:#ff9999; stroke:none;" d="M495 667L496 668L495 667z"/>
<path style="fill:#ff7878; stroke:none;" d="M497 668L498 669L497 668z"/>
<path style="fill:#ff4f4f; stroke:none;" d="M499 669L500 670L499 669z"/>
<path style="fill:#ffb7b7; stroke:none;" d="M500 670L501 671L500 670z"/>
<path style="fill:#ff3c3c; stroke:none;" d="M501 670L502 671L501 670z"/>
<path style="fill:#ff9999; stroke:none;" d="M502 671L503 672L502 671z"/>
<path style="fill:#ff6767; stroke:none;" d="M504 672L505 673L504 672z"/>
<path style="fill:#d01d13; stroke:none;" d="M255 673L255 685C256.512 681.396 256.512 676.604 255 673z"/>
<path style="fill:#ff5c5c; stroke:none;" d="M506 673L507 674L506 673z"/>
<path style="fill:#ffadad; stroke:none;" d="M507 674L508 675L507 674z"/>
<path style="fill:#ff8787; stroke:none;" d="M509 675L510 676L509 675z"/>
<path style="fill:#ff6d6d; stroke:none;" d="M511 676L512 677L511 676z"/>
<path style="fill:#ffcaca; stroke:none;" d="M512 677L513 678L512 677z"/>
<path style="fill:#ff4646; stroke:none;" d="M513 677L514 678L513 677z"/>
<path style="fill:#3b563e; stroke:none;" d="M923 677L923 681C923.71 679.24 923.71 678.759 923 677z"/>
<path style="fill:#ffa6a6; stroke:none;" d="M514 678L515 679L514 678z"/>
<path style="fill:#ff3434; stroke:none;" d="M515 678L516 679L515 678z"/>
<path style="fill:#344236; stroke:none;" d="M991 678L991 682C991.71 680.241 991.71 679.759 991 678z"/>
<path style="fill:#ff8a8a; stroke:none;" d="M516 679L517 680L516 679z"/>
<path style="fill:#ff5959; stroke:none;" d="M518 680L519 681L518 680z"/>
<path style="fill:#ffbdbd; stroke:none;" d="M519 681L520 682L519 681z"/>
<path style="fill:#ff4848; stroke:none;" d="M520 681L521 682L520 681z"/>
<path style="fill:#ffa4a4; stroke:none;" d="M521 682L522 683L521 682z"/>
<path style="fill:#ff7878; stroke:none;" d="M523 683L524 684L523 683z"/>
<path style="fill:#ff6666; stroke:none;" d="M525 684L526 685L525 684z"/>
<path style="fill:#8a4730; stroke:none;" d="M254.333 685.667C254.278 685.722 254.222 686.778 254.667 686.333C254.722 686.278 254.778 685.222 254.333 685.667z"/>
<path style="fill:#ffc2c2; stroke:none;" d="M526 685L527 686L526 685z"/>
<path style="fill:#ff3737; stroke:none;" d="M527 685L528 686L527 685z"/>
<path style="fill:#ff8e8e; stroke:none;" d="M528 686L529 687L528 686z"/>
<path style="fill:#364939; stroke:none;" d="M942 686L942 689C942.696 687.446 942.696 687.554 942 686z"/>
<path style="fill:#ff7979; stroke:none;" d="M530 687L531 688L530 687z"/>
<path style="fill:#884831; stroke:none;" d="M254 688L254 703C255.74 698.852 255.74 692.148 254 688z"/>
<path style="fill:#ff5050; stroke:none;" d="M532 688L533 689L532 688z"/>
<path style="fill:#324134; stroke:none;" d="M925 688L925 692C925.71 690.241 925.71 689.759 925 688z"/>
<path style="fill:#ffafaf; stroke:none;" d="M533 689L534 690L533 689z"/>
<path style="fill:#ff4343; stroke:none;" d="M534 689L535 690L534 689z"/>
<path style="fill:#ff9696; stroke:none;" d="M535 690L536 691L535 690z"/>
<path style="fill:#384f39; stroke:none;" d="M879.333 690.667C879.278 690.722 879.222 691.778 879.667 691.333C879.722 691.278 879.778 690.222 879.333 690.667z"/>
<path style="fill:#ff6a6a; stroke:none;" d="M537 691L538 692L537 691z"/>
<path style="fill:#47704c; stroke:none;" d="M1080 691.518C1064.08 692.78 1063.34 714.976 1062.99 727C1061.98 761.369 1059.9 796.681 1063.17 831C1064.42 844.075 1066.42 863.565 1084 861.894C1098.88 860.481 1100.46 838.458 1100.96 827C1101.89 805.753 1101 784.269 1101 763C1101 749.295 1102.52 734.553 1100.41 721C1098.5 708.737 1096.8 690.187 1080 691.518M1858 763L1896 763C1896 749.935 1895.99 737.007 1895.09 724C1894.62 717.115 1894.95 709.569 1892.56 703C1889.1 693.518 1876.6 686.693 1867.09 692.858C1860.02 697.449 1859.3 707.466 1858.96 715C1858.23 731.001 1858 746.938 1858 763z"/>
<path style="fill:#ffc5c5; stroke:none;" d="M538 692L539 693L538 692z"/>
<path style="fill:#ff5858; stroke:none;" d="M539 692L540 693L539 692z"/>
<path style="fill:#3c573f; stroke:none;" d="M1704 692C1706.61 693.098 1709.16 692.993 1712 693C1709.39 691.902 1706.84 692.007 1704 692z"/>
<path style="fill:#394e3c; stroke:none;" d="M1883.67 692.333C1883.22 692.778 1884.28 692.722 1884.33 692.667C1884.78 692.222 1883.72 692.278 1883.67 692.333z"/>
<path style="fill:#ffb6b6; stroke:none;" d="M540 693L541 694L540 693z"/>
<path style="fill:#394e3b; stroke:none;" d="M1016.33 693.667C1016.28 693.722 1016.22 694.778 1016.67 694.333C1016.72 694.278 1016.78 693.222 1016.33 693.667z"/>
<path style="fill:#47704c; stroke:none;" d="M1701 693.768C1686.23 698.673 1685 714.058 1685 727L1685 809L1685 835C1685 839.134 1684.33 843.98 1685.43 848C1688.02 857.422 1701.23 861.887 1709.91 859.442C1723.69 855.562 1725.94 834.749 1726 823C1726.06 811.693 1727.47 800.294 1727.96 789C1729 765.324 1727.75 741.55 1725.91 718C1724.83 704.162 1717.71 688.218 1701 693.768z"/>
<path style="fill:#ff7f7f; stroke:none;" d="M542 694L543 695L542 694z"/>
<path style="fill:#ff6d6d; stroke:none;" d="M544 695L545 696L544 695z"/>
<path style="fill:#ffcaca; stroke:none;" d="M545 696L546 697L545 696z"/>
<path style="fill:#ff4141; stroke:none;" d="M546 696L547 697L546 696z"/>
<path style="fill:#ff9f9f; stroke:none;" d="M547 697L548 698L547 697z"/>
<path style="fill:#ff3737; stroke:none;" d="M548 697L549 698L548 697z"/>
<path style="fill:#374d3a; stroke:none;" d="M986 697L986 700C986.696 698.446 986.696 698.554 986 697z"/>
<path style="fill:#ff8787; stroke:none;" d="M549 698L550 699L549 698z"/>
<path style="fill:#ff6060; stroke:none;" d="M551 699L552 700L551 699z"/>
<path style="fill:#364937; stroke:none;" d="M1148.33 699.667C1148.28 699.723 1148.22 700.777 1148.67 700.333C1148.72 700.278 1148.78 699.222 1148.33 699.667z"/>
<path style="fill:#364837; stroke:none;" d="M1811.33 699.667C1811.28 699.723 1811.22 700.777 1811.67 700.333C1811.72 700.278 1811.78 699.222 1811.33 699.667z"/>
<path style="fill:#ffb6b6; stroke:none;" d="M552 700L553 701L552 700z"/>
<path style="fill:#ff4a4a; stroke:none;" d="M553 700L554 701L553 700z"/>
<path style="fill:#ffa4a4; stroke:none;" d="M554 701L555 702L554 701z"/>
<path style="fill:#374a3a; stroke:none;" d="M1096.33 701.667C1096.28 701.722 1096.22 702.778 1096.67 702.333C1096.72 702.278 1096.78 701.222 1096.33 701.667z"/>
<path style="fill:#ff7171; stroke:none;" d="M556 702L557 703L556 702z"/>
<path style="fill:#ff6868; stroke:none;" d="M558 703L559 704L558 703z"/>
<path style="fill:#38503b; stroke:none;" d="M1778 703L1778 708C1778.83 705.97 1778.83 705.03 1778 703z"/>
<path style="fill:#ffc1c1; stroke:none;" d="M559 704L560 705L559 704z"/>
<path style="fill:#ff3535; stroke:none;" d="M560 704L561 705L560 704z"/>
<path style="fill:#38513c; stroke:none;" d="M1943 704L1943 709C1943.83 706.97 1943.83 706.03 1943 704z"/>
<path style="fill:#ff9191; stroke:none;" d="M561 705L562 706L561 705z"/>
<path style="fill:#ff7f7f; stroke:none;" d="M563 706L564 707L563 706z"/>
<path style="fill:#ff4b4b; stroke:none;" d="M565 707L566 708L565 707z"/>
<path style="fill:#ffa7a7; stroke:none;" d="M566 708L567 709L566 708z"/>
<path style="fill:#ff3d3d; stroke:none;" d="M567 708L568 709L567 708z"/>
<path style="fill:#374f3a; stroke:none;" d="M884 708L884 711C884.696 709.446 884.696 709.554 884 708z"/>
<path style="fill:#ff9595; stroke:none;" d="M568 709L569 710L568 709z"/>
<path style="fill:#526947; stroke:none;" d="M253 710L253 762C254.661 758.041 254 753.26 254 749L254 724C254 719.464 254.769 714.215 253 710z"/>
<path style="fill:#ff6a6a; stroke:none;" d="M570 710L571 711L570 710z"/>
<path style="fill:#be281b; stroke:none;" d="M793 710L793 719C794.256 716.006 794.256 712.994 793 710z"/>
<path style="fill:#384e3b; stroke:none;" d="M1151 710L1151 714C1151.71 712.24 1151.71 711.76 1151 710z"/>
<path style="fill:#ffc3c3; stroke:none;" d="M571 711L572 712L571 711z"/>
<path style="fill:#ff5353; stroke:none;" d="M572 711L573 712L572 711z"/>
<path style="fill:#38503b; stroke:none;" d="M1808 711L1808 714C1808.7 712.447 1808.7 712.554 1808 711z"/>
<path style="fill:#3c573f; stroke:none;" d="M1858 711L1858 720C1859.26 717.006 1859.26 713.994 1858 711z"/>
<path style="fill:#ffb4b4; stroke:none;" d="M573 712L574 713L573 712z"/>
<path style="fill:#334135; stroke:none;" d="M1099 712L1099 716C1099.71 714.24 1099.71 713.76 1099 712z"/>
<path style="fill:#ff8686; stroke:none;" d="M575 713L576 714L575 713z"/>
<path style="fill:#334135; stroke:none;" d="M1684 713L1684 849C1687.51 840.643 1685 827.06 1685 818L1685 748L1685 725C1685 721.017 1685.55 716.699 1684 713z"/>
<path style="fill:#ff7070; stroke:none;" d="M577 714L578 715L577 714z"/>
<path style="fill:#38503b; stroke:none;" d="M1063 714L1063 720C1063.95 717.715 1063.95 716.285 1063 714z"/>
<path style="fill:#ffcaca; stroke:none;" d="M578 715L579 716L578 715z"/>
<path style="fill:#ff4141; stroke:none;" d="M579 715L580 716L579 715z"/>
<path style="fill:#ff9a9a; stroke:none;" d="M580 716L581 717L580 716z"/>
<path style="fill:#ff8989; stroke:none;" d="M582 717L583 718L582 717z"/>
<path style="fill:#ff5a5a; stroke:none;" d="M584 718L585 719L584 718z"/>
<path style="fill:#39513c; stroke:none;" d="M931 718L931 722C931.71 720.24 931.71 719.76 931 718z"/>
<path style="fill:#ffb7b7; stroke:none;" d="M585 719L586 720L585 719z"/>
<path style="fill:#ff4545; stroke:none;" d="M586 719L587 720L586 719z"/>
<path style="fill:#384a39; stroke:none;" d="M887.333 719.667C887.278 719.722 887.222 720.778 887.667 720.333C887.722 720.278 887.778 719.222 887.333 719.667z"/>
<path style="fill:#ffa6a6; stroke:none;" d="M587 720L588 721L587 720z"/>
<path style="fill:#be281b; stroke:none;" d="M793 720L793 748C795.604 741.794 795.604 726.206 793 720z"/>
<path style="fill:#324134; stroke:none;" d="M1726 720L1726 726C1726.95 723.715 1726.95 722.285 1726 720z"/>
<path style="fill:#303b30; stroke:none;" d="M1857 720L1857 763C1858.55 759.302 1858 754.983 1858 751C1858 741.94 1860.51 728.357 1857 720M1945 720L1945 731C1946.43 727.59 1946.43 723.41 1945 720z"/>
<path style="fill:#ff7171; stroke:none;" d="M589 721L590 722L589 721z"/>
<path style="fill:#ffcbcb; stroke:none;" d="M590 722L591 723L590 722z"/>
<path style="fill:#ff6262; stroke:none;" d="M591 722L592 723L591 722z"/>
<path style="fill:#303b30; stroke:none;" d="M1780 722L1780 733C1781.43 729.59 1781.43 725.41 1780 722z"/>
<path style="fill:#ffbfbf; stroke:none;" d="M592 723L593 724L592 723z"/>
<path style="fill:#ff3535; stroke:none;" d="M593 723L594 724L593 723z"/>
<path style="fill:#ff8f8f; stroke:none;" d="M594 724L595 725L594 724z"/>
<path style="fill:#ff7979; stroke:none;" d="M596 725L597 726L596 725z"/>
<path style="fill:#303b30; stroke:none;" d="M1806 725L1806 733C1807.16 730.23 1807.16 727.77 1806 725z"/>
<path style="fill:#ff5050; stroke:none;" d="M598 726L599 727L598 726z"/>
<path style="fill:#ffa3a3; stroke:none;" d="M599 727L600 728L599 727z"/>
<path style="fill:#ff3535; stroke:none;" d="M600 727L601 728L600 727z"/>
<path style="fill:#ff9999; stroke:none;" d="M601 728L602 729L601 728z"/>
<path style="fill:#354535; stroke:none;" d="M934 728L934 733C934.83 730.97 934.83 730.03 934 728z"/>
<path style="fill:#ff6a6a; stroke:none;" d="M603 729L604 730L603 729z"/>
<path style="fill:#3c573f; stroke:none;" d="M1154 729L1154 737C1155.16 734.23 1155.16 731.77 1154 729z"/>
<path style="fill:#ffc0c0; stroke:none;" d="M604 730L605 731L604 730z"/>
<path style="fill:#ff5252; stroke:none;" d="M605 730L606 731L605 730z"/>
<path style="fill:#364837; stroke:none;" d="M1008 730L1008 739C1009.26 736.006 1009.26 732.994 1008 730z"/>
<path style="fill:#ffb1b1; stroke:none;" d="M606 731L607 732L606 731z"/>
<path style="fill:#3c573f; stroke:none;" d="M1946 731L1946 794C1947.88 789.531 1947 783.809 1947 779L1947 748C1947 742.65 1948.09 735.969 1946 731z"/>
<path style="fill:#ff8686; stroke:none;" d="M608 732L609 733L608 732z"/>
<path style="fill:#ff9595; stroke:none;" d="M609 733L610 734L609 733z"/>
<path style="fill:#3c573f; stroke:none;" d="M1781 733L1781 755C1783.22 749.713 1783.22 738.287 1781 733M1805 733L1805 747C1806.67 743.028 1806.67 736.972 1805 733z"/>
<path style="fill:#ff7979; stroke:none;" d="M608 734L609 735L608 734z"/>
<path style="fill:#ffa4a4; stroke:none;" d="M606 735L607 736L606 735z"/>
<path style="fill:#ffb3b3; stroke:none;" d="M604 736L605 737L604 736z"/>
<path style="fill:#ff4141; stroke:none;" d="M605 736L606 737L605 736z"/>
<path style="fill:#ff5c5c; stroke:none;" d="M603 737L604 738L603 737z"/>
<path style="fill:#ff8686; stroke:none;" d="M601 738L602 739L601 738z"/>
<path style="fill:#ff9595; stroke:none;" d="M599 739L600 740L599 739z"/>
<path style="fill:#416245; stroke:none;" d="M1007 739L1007 817C1009.39 811.293 1008 803.154 1008 797L1008 758C1008 752.113 1009.29 744.462 1007 739z"/>
<path style="fill:#ffcbcb; stroke:none;" d="M597 740L598 741L597 740z"/>
<path style="fill:#ff4848; stroke:none;" d="M598 740L599 741L598 740z"/>
<path style="fill:#ff6868; stroke:none;" d="M596 741L597 742L596 741z"/>
<path style="fill:#ff8282; stroke:none;" d="M594 742L595 743L594 742z"/>
<path style="fill:#ffb1b1; stroke:none;" d="M592 743L593 744L592 743z"/>
<path style="fill:#ffbfbf; stroke:none;" d="M590 744L591 745L590 744z"/>
<path style="fill:#ff5252; stroke:none;" d="M591 744L592 745L591 744z"/>
<path style="fill:#ff6464; stroke:none;" d="M589 745L590 746L589 745z"/>
<path style="fill:#ff9999; stroke:none;" d="M587 746L588 747L587 746z"/>
<path style="fill:#ffabab; stroke:none;" d="M585 747L586 748L585 747z"/>
<path style="fill:#ff3636; stroke:none;" d="M586 747L587 748L586 747z"/>
<path style="fill:#ff4e4e; stroke:none;" d="M584 748L585 749L584 748z"/>
<path style="fill:#ff7878; stroke:none;" d="M582 749L583 750L582 749z"/>
<path style="fill:#be281b; stroke:none;" d="M793 749L793 754C793.83 751.97 793.83 751.03 793 749z"/>
<path style="fill:#ff8a8a; stroke:none;" d="M580 750L581 751L580 750z"/>
<path style="fill:#ffbebe; stroke:none;" d="M578 751L579 752L578 751z"/>
<path style="fill:#ff3737; stroke:none;" d="M579 751L580 752L579 751z"/>
<path style="fill:#ffc9c9; stroke:none;" d="M576 752L577 753L576 752z"/>
<path style="fill:#ff6363; stroke:none;" d="M577 752L578 753L577 752z"/>
<path style="fill:#ff6d6d; stroke:none;" d="M575 753L576 754L575 753z"/>
<path style="fill:#ffa5a5; stroke:none;" d="M573 754L574 755L573 754z"/>
<path style="fill:#ffb6b6; stroke:none;" d="M571 755L572 756L571 755z"/>
<path style="fill:#ff4343; stroke:none;" d="M572 755L573 756L572 755z"/>
<path style="fill:#ff5c5c; stroke:none;" d="M570 756L571 757L570 756z"/>
<path style="fill:#ff8989; stroke:none;" d="M568 757L569 758L568 757z"/>
<path style="fill:#ff9797; stroke:none;" d="M566 758L567 759L566 758z"/>
<path style="fill:#36493a; stroke:none;" d="M898 758L898 761C898.696 759.446 898.696 759.554 898 758z"/>
<path style="fill:#ffc8c8; stroke:none;" d="M564 759L565 760L564 759z"/>
<path style="fill:#ff3e3e; stroke:none;" d="M565 759L566 760L565 759z"/>
<path style="fill:#ff6f6f; stroke:none;" d="M563 760L564 761L563 760z"/>
<path style="fill:#ff8282; stroke:none;" d="M561 761L562 762L561 761z"/>
<path style="fill:#ffb4b4; stroke:none;" d="M559 762L560 763L559 762z"/>
<path style="fill:#ffc3c3; stroke:none;" d="M557 763L558 764L557 763z"/>
<path style="fill:#ff5757; stroke:none;" d="M558 763L559 764L558 763z"/>
<path style="fill:#884831; stroke:none;" d="M254 764L254 782C255.952 777.349 255.952 768.651 254 764z"/>
<path style="fill:#ff6464; stroke:none;" d="M556 764L557 765L556 764z"/>
<path style="fill:#ff9595; stroke:none;" d="M554 765L555 766L554 765z"/>
<path style="fill:#ffa3a3; stroke:none;" d="M552 766L553 767L552 766z"/>
<path style="fill:#ff4040; stroke:none;" d="M553 766L554 767L553 766z"/>
<path style="fill:#ff5151; stroke:none;" d="M551 767L552 768L551 767z"/>
<path style="fill:#ff7d7d; stroke:none;" d="M549 768L550 769L549 768z"/>
<path style="fill:#ff8d8d; stroke:none;" d="M547 769L548 770L547 769z"/>
<path style="fill:#ffc0c0; stroke:none;" d="M545 770L546 771L545 770z"/>
<path style="fill:#ff3535; stroke:none;" d="M546 770L547 771L546 770z"/>
<path style="fill:#ff6161; stroke:none;" d="M544 771L545 772L544 771z"/>
<path style="fill:#ff6e6e; stroke:none;" d="M542 772L543 773L542 772z"/>
<path style="fill:#ffa9a9; stroke:none;" d="M540 773L541 774L540 773z"/>
<path style="fill:#ffb5b5; stroke:none;" d="M538 774L539 775L538 774z"/>
<path style="fill:#ff4a4a; stroke:none;" d="M539 774L540 775L539 774z"/>
<path style="fill:#ff5d5d; stroke:none;" d="M537 775L538 776L537 775z"/>
<path style="fill:#ff8989; stroke:none;" d="M535 776L536 777L535 776z"/>
<path style="fill:#ff9c9c; stroke:none;" d="M533 777L534 778L533 777z"/>
<path style="fill:#ff3535; stroke:none;" d="M534 777L535 778L534 777z"/>
<path style="fill:#ffc7c7; stroke:none;" d="M531 778L532 779L531 778z"/>
<path style="fill:#ff4040; stroke:none;" d="M532 778L533 779L532 778z"/>
<path style="fill:#ff6d6d; stroke:none;" d="M530 779L531 780L530 779z"/>
<path style="fill:#ff7b7b; stroke:none;" d="M528 780L529 781L528 780z"/>
<path style="fill:#ffb7b7; stroke:none;" d="M526 781L527 782L526 781z"/>
<path style="fill:#d01d13; stroke:none;" d="M255 782L255 795C256.591 791.209 256.591 785.791 255 782z"/>
<path style="fill:#ffcaca; stroke:none;" d="M524 782L525 783L524 782z"/>
<path style="fill:#ff5858; stroke:none;" d="M525 782L526 783L525 782z"/>
<path style="fill:#ff6565; stroke:none;" d="M523 783L524 784L523 783z"/>
<path style="fill:#ff9696; stroke:none;" d="M521 784L522 785L521 784z"/>
<path style="fill:#ffacac; stroke:none;" d="M519 785L520 786L519 785z"/>
<path style="fill:#ff3e3e; stroke:none;" d="M520 785L521 786L520 785z"/>
<path style="fill:#ff4c4c; stroke:none;" d="M518 786L519 787L518 786z"/>
<path style="fill:#37493a; stroke:none;" d="M961.333 786.667C961.278 786.722 961.222 787.778 961.667 787.333C961.722 787.278 961.778 786.222 961.333 786.667z"/>
<path style="fill:#ff7d7d; stroke:none;" d="M516 787L517 788L516 787z"/>
<path style="fill:#ff9494; stroke:none;" d="M514 788L515 789L514 788z"/>
<path style="fill:#ffc0c0; stroke:none;" d="M512 789L513 790L512 789z"/>
<path style="fill:#ff3838; stroke:none;" d="M513 789L514 790L513 789z"/>
<path style="fill:#ff6161; stroke:none;" d="M511 790L512 791L511 790z"/>
<path style="fill:#2d362f; stroke:none;" d="M907 790L907 895C910.105 887.601 908 876.007 908 868L908 814C908 806.784 909.802 796.678 907 790z"/>
<path style="fill:#ff7575; stroke:none;" d="M509 791L510 792L509 791z"/>
<path style="fill:#884831; stroke:none;" d="M791 791L791 802C792.431 798.59 792.431 794.41 791 791z"/>
<path style="fill:#ffa2a2; stroke:none;" d="M507 792L508 793L507 792z"/>
<path style="fill:#ffbdbd; stroke:none;" d="M505 793L506 794L505 793z"/>
<path style="fill:#ff4f4f; stroke:none;" d="M506 793L507 794L506 793z"/>
<path style="fill:#ff5555; stroke:none;" d="M504 794L505 795L504 794z"/>
<path style="fill:#2e3930; stroke:none;" d="M1857 794L1857 832C1860.1 824.601 1858 813.007 1858 805C1858 801.298 1858.44 797.435 1857 794z"/>
<path style="fill:#405d43; stroke:none;" d="M1858 794C1865.4 797.105 1876.99 795 1885 795L1946 795C1938.6 791.895 1927.01 794 1919 794L1858 794z"/>
<path style="fill:#ff8c8c; stroke:none;" d="M502 795L503 796L502 795z"/>
<path style="fill:#ffa1a1; stroke:none;" d="M500 796L501 797L500 796z"/>
<path style="fill:#ffc7c7; stroke:none;" d="M498 797L499 798L498 797z"/>
<path style="fill:#ff4444; stroke:none;" d="M499 797L500 798L499 797z"/>
<path style="fill:#ff6c6c; stroke:none;" d="M497 798L498 799L497 798z"/>
<path style="fill:#ff8585; stroke:none;" d="M495 799L496 800L495 799z"/>
<path style="fill:#ffaaaa; stroke:none;" d="M493 800L494 801L493 800z"/>
<path style="fill:#ff5858; stroke:none;" d="M492 801L493 802L492 801z"/>
<path style="fill:#ff6b6b; stroke:none;" d="M490 802L491 803L490 802z"/>
<path style="fill:#d01d13; stroke:none;" d="M790 802L790 810C791.161 807.23 791.161 804.77 790 802z"/>
<path style="fill:#ff9696; stroke:none;" d="M488 803L489 804L488 803z"/>
<path style="fill:#3c573f; stroke:none;" d="M1781 803L1781 821C1782.95 816.349 1782.95 807.651 1781 803z"/>
<path style="fill:#ffb4b4; stroke:none;" d="M486 804L487 805L486 804z"/>
<path style="fill:#ff4040; stroke:none;" d="M487 804L488 805L487 804z"/>
<path style="fill:#5d6342; stroke:none;" d="M256 805L256 814C257.256 811.006 257.256 807.994 256 805z"/>
<path style="fill:#ffcbcb; stroke:none;" d="M484 805L485 806L484 805z"/>
<path style="fill:#ff4e4e; stroke:none;" d="M485 805L486 806L485 805z"/>
<path style="fill:#ff7575; stroke:none;" d="M483 806L484 807L483 806z"/>
<path style="fill:#3c573f; stroke:none;" d="M1805 806L1805 819C1806.59 815.209 1806.59 809.791 1805 806z"/>
<path style="fill:#ff9898; stroke:none;" d="M481 807L482 808L481 807z"/>
<path style="fill:#ffbebe; stroke:none;" d="M479 808L480 809L479 808z"/>
<path style="fill:#ff3a3a; stroke:none;" d="M480 808L481 809L480 808z"/>
<path style="fill:#ff6262; stroke:none;" d="M478 809L479 810L478 809z"/>
<path style="fill:#ff7b7b; stroke:none;" d="M476 810L477 811L476 810z"/>
<path style="fill:#824c33; stroke:none;" d="M790 810L791 811L790 810z"/>
<path style="fill:#ffa0a0; stroke:none;" d="M474 811L475 812L474 811z"/>
<path style="fill:#ffc2c2; stroke:none;" d="M472 812L473 813L472 812z"/>
<path style="fill:#ff4848; stroke:none;" d="M473 812L474 813L473 812z"/>
<path style="fill:#ffc8c8; stroke:none;" d="M470 813L471 814L470 813z"/>
<path style="fill:#ff6464; stroke:none;" d="M471 813L472 814L471 813z"/>
<path style="fill:#9a3e2a; stroke:none;" d="M257 814L257 819C257.83 816.97 257.83 816.03 257 814z"/>
<path style="fill:#324134; stroke:none;" d="M1726 815L1726 825C1727.35 821.793 1727.35 818.207 1726 815z"/>
<path style="fill:#364838; stroke:none;" d="M1008 817L1008 826C1009.26 823.006 1009.26 819.994 1008 817z"/>
<path style="fill:#b32e20; stroke:none;" d="M789 818L790 819L789 818z"/>
<path style="fill:#5d6342; stroke:none;" d="M789 819L789 826C790.06 823.466 790.06 821.534 789 819z"/>
<path style="fill:#3c573f; stroke:none;" d="M1154 819L1154 827C1155.16 824.23 1155.16 821.77 1154 819z"/>
<path style="fill:#303b30; stroke:none;" d="M1806 819L1806 827C1807.16 824.23 1807.16 821.77 1806 819z"/>
<path style="fill:#a33826; stroke:none;" d="M257 820L258 821L257 820z"/>
<path style="fill:#303b30; stroke:none;" d="M1780 821L1780 830C1781.26 827.006 1781.26 823.994 1780 821z"/>
<path style="fill:#dc150f; stroke:none;" d="M258 822L258 828C258.951 825.715 258.951 824.285 258 822z"/>
<path style="fill:#3e5d43; stroke:none;" d="M1922 823C1926.22 824.769 1931.46 824 1936 824C1931.78 822.231 1926.54 823 1922 823z"/>
<path style="fill:#334135; stroke:none;" d="M1936 824C1938.89 825.213 1941.87 824.998 1945 825C1942.11 823.787 1939.13 824.002 1936 824z"/>
<path style="fill:#9a3e2a; stroke:none;" d="M788 826L788 832C788.951 829.715 788.951 828.285 788 826z"/>
<path style="fill:#3c573f; stroke:none;" d="M1858 832L1858 841C1859.26 838.006 1859.26 834.994 1858 832z"/>
<path style="fill:#dc150f; stroke:none;" d="M787 833L787 838C787.83 835.97 787.83 835.03 787 833z"/>
<path style="fill:#38503b; stroke:none;" d="M1063 833L1063 839C1063.95 836.715 1063.95 835.285 1063 833z"/>
<path style="fill:#6b5a3d; stroke:none;" d="M259 834L259 839C259.83 836.969 259.83 836.03 259 834z"/>
<path style="fill:#334135; stroke:none;" d="M1099 838L1099 842C1099.71 840.24 1099.71 839.76 1099 838z"/>
<path style="fill:#38503b; stroke:none;" d="M1808 838L1808 841C1808.7 839.446 1808.7 839.554 1808 838z"/>
<path style="fill:#ac3322; stroke:none;" d="M260 839L260 844C260.83 841.969 260.83 841.031 260 839z"/>
<path style="fill:#364a38; stroke:none;" d="M1723.33 841.667C1723.28 841.723 1723.22 842.777 1723.67 842.333C1723.72 842.278 1723.78 841.222 1723.33 841.667z"/>
<path style="fill:#324f37; stroke:none;" d="M1778 841L1778 846C1778.83 843.97 1778.83 843.03 1778 841z"/>
<path style="fill:#394f3b; stroke:none;" d="M1896 841L1896 845C1896.71 843.24 1896.71 842.76 1896 841z"/>
<path style="fill:#334135; stroke:none;" d="M1011 842L1011 846C1011.71 844.24 1011.71 843.76 1011 842z"/>
<path style="fill:#3a513c; stroke:none;" d="M1151 842L1151 846C1151.71 844.24 1151.71 843.759 1151 842z"/>
<path style="fill:#795237; stroke:none;" d="M786.333 843.667C786.278 843.722 786.222 844.778 786.667 844.333C786.722 844.278 786.778 843.222 786.333 843.667z"/>
<path style="fill:#c92016; stroke:none;" d="M786.333 845.667C786.278 845.722 786.222 846.778 786.667 846.333C786.722 846.278 786.778 845.222 786.333 845.667z"/>
<path style="fill:#ad3221; stroke:none;" d="M785 847L785 852C785.83 849.97 785.83 849.03 785 847z"/>
<path style="fill:#384f3b; stroke:none;" d="M1066.33 849.667C1066.28 849.723 1066.22 850.777 1066.67 850.333C1066.72 850.278 1066.78 849.222 1066.33 849.667z"/>
<path style="fill:#38503b; stroke:none;" d="M1456 851L1456 857C1456.95 854.715 1456.95 853.285 1456 851z"/>
<path style="fill:#745539; stroke:none;" d="M262 852L262 856C262.71 854.241 262.71 853.759 262 852z"/>
<path style="fill:#374b3a; stroke:none;" d="M1893.33 852.667C1893.28 852.723 1893.22 853.777 1893.67 853.333C1893.72 853.278 1893.78 852.222 1893.33 852.667z"/>
<path style="fill:#394f3b; stroke:none;" d="M1943.33 852.667C1943.28 852.723 1943.22 853.777 1943.67 853.333C1943.72 853.278 1943.78 852.222 1943.33 852.667z"/>
<path style="fill:#384d3a; stroke:none;" d="M1069.33 855.667C1069.28 855.722 1069.22 856.778 1069.67 856.333C1069.72 856.278 1069.78 855.222 1069.33 855.667z"/>
<path style="fill:#be281b; stroke:none;" d="M263 856L263 860C263.71 858.241 263.71 857.759 263 856z"/>
<path style="fill:#775338; stroke:none;" d="M783 859L783 862C783.696 860.446 783.696 860.554 783 859z"/>
<path style="fill:#384b3b; stroke:none;" d="M1259.67 859.333C1259.22 859.778 1260.28 859.722 1260.33 859.667C1260.78 859.222 1259.72 859.278 1259.67 859.333z"/>
<path style="fill:#364839; stroke:none;" d="M1184 860L1184 863C1184.7 861.446 1184.7 861.554 1184 860z"/>
<path style="fill:#aa3423; stroke:none;" d="M264 862L265 863L264 862z"/>
<path style="fill:#c1271a; stroke:none;" d="M782 862L782 865C782.696 863.446 782.696 863.554 782 862z"/>
<path style="fill:#38503b; stroke:none;" d="M1080 862C1081.51 862.683 1082.31 862.826 1084 863C1082.49 862.317 1081.69 862.174 1080 862M1875 862C1876.77 862.779 1878.04 862.912 1880 863C1878.23 862.221 1876.96 862.088 1875 862z"/>
<path style="fill:#894731; stroke:none;" d="M265 865L265 868C265.696 866.446 265.696 866.554 265 865z"/>
<path style="fill:#38503d; stroke:none;" d="M1279 867C1279.55 868.635 1279.36 868.455 1281 869L1281 867L1279 867z"/>
<path style="fill:#b72b1e; stroke:none;" d="M781 868L782 869L781 868z"/>
<path style="fill:#864832; stroke:none;" d="M780.333 869.667C780.278 869.722 780.222 870.778 780.667 870.333C780.722 870.278 780.778 869.222 780.333 869.667z"/>
<path style="fill:#38513b; stroke:none;" d="M1937.33 869.667C1937.28 869.723 1937.22 870.777 1937.67 870.333C1937.72 870.278 1937.78 869.222 1937.33 869.667z"/>
<path style="fill:#94412d; stroke:none;" d="M267 871L268 872L267 871z"/>
<path style="fill:#355139; stroke:none;" d="M1550.33 871.667C1550.28 871.722 1550.22 872.777 1550.67 872.333C1550.72 872.278 1550.78 871.222 1550.33 871.667z"/>
<path style="fill:#b52d1f; stroke:none;" d="M779 872L780 873L779 872z"/>
<path style="fill:#953f2c; stroke:none;" d="M268.333 873.667C268.278 873.722 268.222 874.778 268.667 874.333C268.722 874.278 268.778 873.222 268.333 873.667z"/>
<path style="fill:#374b3a; stroke:none;" d="M1681.33 874.667C1681.28 874.723 1681.22 875.777 1681.67 875.333C1681.72 875.278 1681.78 874.222 1681.33 874.667z"/>
<path style="fill:#dc150f; stroke:none;" d="M269.333 875.667C269.278 875.722 269.222 876.778 269.667 876.333C269.722 876.278 269.778 875.222 269.333 875.667z"/>
<path style="fill:#95402c; stroke:none;" d="M777.333 876.667C777.278 876.722 777.222 877.778 777.667 877.333C777.722 877.278 777.778 876.222 777.333 876.667z"/>
<path style="fill:#384f3b; stroke:none;" d="M1555 876L1555 881C1555.83 878.97 1555.83 878.03 1555 876z"/>
<path style="fill:#af3222; stroke:none;" d="M776 878L777 879L776 878z"/>
<path style="fill:#aa3423; stroke:none;" d="M271 879L272 880L271 879z"/>
<path style="fill:#35523a; stroke:none;" d="M1027.33 880.667C1027.28 880.723 1027.22 881.777 1027.67 881.333C1027.72 881.278 1027.78 880.222 1027.33 880.667z"/>
<path style="fill:#b02f20; stroke:none;" d="M272 881L273 882L272 881z"/>
<path style="fill:#6d583c; stroke:none;" d="M273.333 882.667C273.278 882.722 273.222 883.778 273.667 883.333C273.722 883.278 273.778 882.222 273.333 882.667z"/>
<path style="fill:#38503c; stroke:none;" d="M1679 882L1679 885C1679.7 883.447 1679.7 883.553 1679 882z"/>
<path style="fill:#824c33; stroke:none;" d="M274 884L275 885L274 884z"/>
<path style="fill:#c02619; stroke:none;" d="M772 884L773 885L772 884z"/>
<path style="fill:#364838; stroke:none;" d="M1283 884L1283 888C1283.71 886.24 1283.71 885.759 1283 884z"/>
<path style="fill:#394e3c; stroke:none;" d="M1924.67 884.333C1924.22 884.777 1925.28 884.723 1925.33 884.667C1925.78 884.222 1924.72 884.278 1924.67 884.333z"/>
<path style="fill:#6f573c; stroke:none;" d="M772.333 885.667C772.278 885.722 772.222 886.778 772.667 886.333C772.722 886.278 772.778 885.222 772.333 885.667z"/>
<path style="fill:#98402b; stroke:none;" d="M770 887L771 888L770 887z"/>
<path style="fill:#354a38; stroke:none;" d="M1693.67 887.333C1693.22 887.777 1694.28 887.722 1694.33 887.667C1694.78 887.222 1693.72 887.278 1693.67 887.333z"/>
<path style="fill:#92422d; stroke:none;" d="M279.333 890.667C279.278 890.722 279.222 891.778 279.667 891.333C279.722 891.278 279.778 890.222 279.333 890.667z"/>
<path style="fill:#344d38; stroke:none;" d="M1915.67 890.333C1915.22 890.777 1916.28 890.722 1916.33 890.667C1916.78 890.222 1915.72 890.278 1915.67 890.333z"/>
<path style="fill:#c32519; stroke:none;" d="M282 893L283 894L282 893z"/>
<path style="fill:#374d3b; stroke:none;" d="M1702.67 893.333C1702.22 893.777 1703.28 893.723 1703.33 893.667C1703.78 893.222 1702.72 893.278 1702.67 893.333z"/>
<path style="fill:#364839; stroke:none;" d="M1676 894C1670.56 895.607 1664.64 895 1659 895L1632 895C1635.03 896.743 1639.46 896 1643 896L1666 896C1668.25 896 1677.29 897.132 1676 894z"/>
<path style="fill:#c22519; stroke:none;" d="M284 895L285 896L284 895z"/>
<path style="fill:#b13121; stroke:none;" d="M763 895L764 896L763 895z"/>
<path style="fill:#364839; stroke:none;" d="M907 895C912.216 897.189 919.381 896 925 896L961 896C955.784 893.811 948.619 895 943 895L907 895z"/>
<path style="fill:#374a38; stroke:none;" d="M1111.67 895.333C1111.22 895.777 1112.28 895.722 1112.33 895.667C1112.78 895.222 1111.72 895.278 1111.67 895.333z"/>
<path style="fill:#364838; stroke:none;" d="M1367 895C1371.97 897.085 1378.65 896 1384 896L1419 896C1414.03 893.915 1407.35 895 1402 895L1367 895z"/>
<path style="fill:#374939; stroke:none;" d="M1523.67 895.333C1523.22 895.777 1524.28 895.723 1524.33 895.667C1524.78 895.222 1523.72 895.278 1523.67 895.333z"/>
<path style="fill:#364837; stroke:none;" d="M1850 895C1851.25 895.685 1851.55 895.749 1853 896C1851.75 895.315 1851.45 895.251 1850 895z"/>
<path style="fill:#364737; stroke:none;" d="M1901 895C1902.25 895.685 1902.55 895.749 1904 896C1902.75 895.315 1902.45 895.251 1901 895z"/>
<path style="fill:#426346; stroke:none;" d="M1285 896C1289.22 897.769 1294.46 897 1299 897L1328 897C1323.78 895.231 1318.54 896 1314 896L1285 896M1559 896C1563.22 897.769 1568.46 897 1573 897L1600 897C1595.78 895.231 1590.54 896 1586 896L1559 896z"/>
<path style="fill:#c42419; stroke:none;" d="M287 898L288 899L287 898z"/>
<path style="fill:#7b5136; stroke:none;" d="M760 898L761 899L760 898z"/>
<path style="fill:#39503b; stroke:none;" d="M1062 898C1063.51 898.683 1064.32 898.826 1066 899C1064.49 898.317 1063.69 898.174 1062 898z"/>
<path style="fill:#38503b; stroke:none;" d="M1098 898C1099.51 898.683 1100.31 898.826 1102 899C1100.49 898.317 1099.69 898.174 1098 898z"/>
<path style="fill:#3a503b; stroke:none;" d="M1214 898C1215.25 898.685 1215.55 898.749 1217 899C1215.75 898.315 1215.45 898.251 1214 898z"/>
<path style="fill:#38513b; stroke:none;" d="M1240 898C1241.51 898.683 1242.31 898.826 1244 899C1242.49 898.317 1241.69 898.174 1240 898z"/>
<path style="fill:#3a503c; stroke:none;" d="M1487 898C1488.25 898.685 1488.55 898.749 1490 899C1488.75 898.315 1488.45 898.251 1487 898z"/>
<path style="fill:#384f3b; stroke:none;" d="M1514 898C1515.25 898.685 1515.55 898.749 1517 899C1515.75 898.315 1515.45 898.251 1514 898z"/>
<path style="fill:#3a513c; stroke:none;" d="M1716 898C1717.77 898.779 1719.04 898.912 1721 899C1719.23 898.221 1717.96 898.088 1716 898z"/>
<path style="fill:#39513c; stroke:none;" d="M1737 898C1738.51 898.683 1739.31 898.826 1741 899C1739.49 898.317 1738.69 898.174 1737 898z"/>
<path style="fill:#38503b; stroke:none;" d="M1866 898C1872.2 900.603 1881.3 899 1888 899C1881.8 896.397 1872.7 898 1866 898z"/>
<path style="fill:#a93424; stroke:none;" d="M757 900L758 901L757 900z"/>
<path style="fill:#c0261b; stroke:none;" d="M755 901L756 902L755 901z"/>
<path style="fill:#844b34; stroke:none;" d="M756 901L757 902L756 901z"/>
<path style="fill:#a73524; stroke:none;" d="M293 902L294 903L293 902z"/>
<path style="fill:#d51a11; stroke:none;" d="M294.667 903.333C294.222 903.778 295.278 903.722 295.333 903.667C295.778 903.222 294.722 903.278 294.667 903.333z"/>
<path style="fill:#844a33; stroke:none;" d="M298 905L299 906L298 905z"/>
<path style="fill:#ae3122; stroke:none;" d="M749 905L750 906L749 905z"/>
<path style="fill:#bd281a; stroke:none;" d="M299.667 906.333C299.222 906.778 300.278 906.722 300.333 906.667C300.778 906.222 299.722 906.278 299.667 906.333z"/>
<path style="fill:#aa3423; stroke:none;" d="M747 906L748 907L747 906z"/>
<path style="fill:#6f573b; stroke:none;" d="M301.667 907.333C301.222 907.778 302.278 907.722 302.333 907.667C302.778 907.222 301.722 907.278 301.667 907.333z"/>
<path style="fill:#dc160d; stroke:none;" d="M304.667 908.333C304.222 908.778 305.278 908.722 305.333 908.667C305.778 908.222 304.722 908.278 304.667 908.333z"/>
<path style="fill:#b82c1e; stroke:none;" d="M743 908L744 909L743 908z"/>
<path style="fill:#9b3d29; stroke:none;" d="M306.667 909.333C306.222 909.778 307.278 909.722 307.333 909.667C307.778 909.222 306.722 909.278 306.667 909.333z"/>
<path style="fill:#9b3d2a; stroke:none;" d="M741 909L742 910L741 909z"/>
<path style="fill:#d21b13; stroke:none;" d="M313 911C314.248 911.685 314.548 911.749 316 912C314.752 911.315 314.452 911.251 313 911z"/>
<path style="fill:#894731; stroke:none;" d="M316 912C317.506 912.683 318.315 912.826 320 913C318.494 912.317 317.685 912.174 316 912z"/>
<path style="fill:#864a33; stroke:none;" d="M729 912C730.506 912.683 731.315 912.826 733 913C731.494 912.317 730.685 912.174 729 912z"/>
<path style="fill:#c92117; stroke:none;" d="M725.667 913.333C725.222 913.778 726.278 913.722 726.333 913.667C726.778 913.222 725.722 913.278 725.667 913.333z"/>
<path style="fill:#844b32; stroke:none;" d="M727.667 913.333C727.222 913.778 728.278 913.722 728.333 913.667C728.778 913.222 727.722 913.278 727.667 913.333z"/>
<path style="fill:#be281b; stroke:none;" d="M329 914C330.769 914.779 332.036 914.912 334 915C332.231 914.221 330.964 914.088 329 914M716 914C717.506 914.683 718.315 914.826 720 915C718.494 914.317 717.685 914.174 716 914z"/>
<path style="fill:#a03b29; stroke:none;" d="M723 914L724 915L723 914z"/>
<path style="fill:#775339; stroke:none;" d="M335 915C337.052 915.874 338.747 915.953 341 916C338.948 915.126 337.253 915.047 335 915z"/>
<path style="fill:#c42319; stroke:none;" d="M708 915L709 916L708 915z"/>
<path style="fill:#775339; stroke:none;" d="M709 915C711.332 915.985 713.457 915.981 716 916C713.668 915.015 711.543 915.019 709 915z"/>
<path style="fill:#ea0d0a; stroke:none;" d="M348 916C350.613 917.098 353.165 916.993 356 917C353.387 915.902 350.836 916.007 348 916M693 916C695.89 917.213 698.874 916.998 702 917C699.11 915.787 696.126 916.002 693 916z"/>
<path style="fill:#ac3322; stroke:none;" d="M357 917C360.163 918.327 363.586 918 367 918C363.837 916.673 360.414 917 357 917M684 917C686.89 918.213 689.874 917.998 693 918C690.11 916.787 687.126 917.002 684 917z"/>
<path style="fill:#6a5b3d; stroke:none;" d="M367 918C370.163 919.327 373.586 919 377 919C373.837 917.673 370.414 918 367 918M673 918C676.432 919.44 680.3 919 684 919C680.568 917.56 676.7 918 673 918z"/>
<path style="fill:#dc150f; stroke:none;" d="M390 919C394.724 920.982 400.91 920 406 920C401.276 918.018 395.09 919 390 919M644 919C647.432 920.44 651.3 920 655 920C651.568 918.56 647.7 919 644 919M656 919C657.248 919.685 657.548 919.749 659 920C657.752 919.315 657.452 919.251 656 919z"/>
<path style="fill:#7c5035; stroke:none;" d="M659 919L660 920L659 919z"/>
<path style="fill:#9a3f2a; stroke:none;" d="M664 919L665 920L664 919z"/>
<path style="fill:#8b4731; stroke:none;" d="M666.667 919.333C666.222 919.778 667.278 919.722 667.333 919.667C667.778 919.222 666.722 919.278 666.667 919.333z"/>
<path style="fill:#9a3e2a; stroke:none;" d="M406 920C409.432 921.44 413.3 921 417 921C413.568 919.56 409.7 920 406 920M419 920C421.052 920.874 422.747 920.953 425 921C422.948 920.126 421.253 920.047 419 920M624 920C626.332 920.985 628.457 920.981 631 921C628.668 920.015 626.543 920.019 624 920M632 920C633.506 920.683 634.315 920.826 636 921C634.494 920.317 633.685 920.174 632 920z"/>
<path style="fill:#9b3c27; stroke:none;" d="M637 920L638 921L637 920z"/>
<path style="fill:#993e2a; stroke:none;" d="M639 920C640.769 920.779 642.036 920.912 644 921C642.231 920.221 640.964 920.088 639 920z"/>
<path style="fill:#814d34; stroke:none;" d="M655 920L656 921L655 920z"/>
<path style="fill:#5d6342; stroke:none;" d="M427 921C433.687 923.806 443.767 922 451 922C444.313 919.194 434.233 921 427 921M598 921C600.613 922.098 603.165 921.993 606 922C603.387 920.902 600.836 921.007 598 921z"/>
<path style="fill:#8d462f; stroke:none;" d="M606.667 921.333C606.222 921.778 607.278 921.722 607.333 921.667C607.778 921.222 606.722 921.278 606.667 921.333z"/>
<path style="fill:#5d6342; stroke:none;" d="M608 921C612.724 922.982 618.91 922 624 922C619.276 920.018 613.09 921 608 921z"/>
<path style="fill:#a23a27; stroke:none;" d="M464 922L465 923L464 922z"/>
<path style="fill:#d01d13; stroke:none;" d="M489 922C495.194 924.599 504.314 923 511 923L558 923C551.806 920.401 542.686 922 536 922L489 922z"/>
<path style="fill:#3b7751; stroke:none;" d="M490 923C493.699 924.552 498.017 924 502 924L522 924C547.098 924 572.009 923.207 597 923C593.215 921.412 588.894 922.2 584.83 922.08C574.493 921.775 564.279 922.207 554 922.911C532.87 924.357 511.182 923 490 923z"/>
<path style="fill:#ae3223; stroke:none;" d="M572 922L573 923L572 922z"/>
<path style="fill:#8d462f; stroke:none;" d="M587 922L588 923L587 922z"/>
</svg>
